<?xml version="1.0" encoding="iso-8859-1"?>
<!-- Generator: Adobe Illustrator 27.9.0, SVG Export Plug-In . SVG Version: 6.00 Build 0)  -->
<svg version="1.1" xmlns="http://www.w3.org/2000/svg" xmlns:xlink="http://www.w3.org/1999/xlink" x="0px" y="0px"
	 viewBox="0 0 131 70" style="enable-background:new 0 0 131 70;" xml:space="preserve">

<g id="d-SMU_Full_Colour">
	<g>
		<g>
			<path style="fill:#141B4D;" d="M36.417,36.487c-0.339-0.162-0.365-0.254-0.365-0.881c0-1.161,0.097-2.088,0.121-2.459
				c0.024-0.256,0.073-0.371,0.196-0.371c0.147,0,0.167,0.071,0.167,0.257c0,0.206,0,0.532,0.076,0.855
				c0.366,1.717,1.973,2.367,3.606,2.367c2.336,0,3.483-1.601,3.483-3.086c0-1.6-0.707-2.53-2.801-4.175l-1.099-0.859
				c-2.581-2.016-3.164-3.454-3.164-5.03c0-2.482,1.949-4.175,5.042-4.175c0.949,0,1.656,0.091,2.265,0.23
				c0.462,0.093,0.659,0.117,0.854,0.117c0.194,0,0.242,0.046,0.242,0.16c0,0.118-0.098,0.883-0.098,2.46
				c0,0.371-0.049,0.533-0.169,0.533c-0.147,0-0.17-0.116-0.197-0.301c-0.023-0.277-0.17-0.906-0.316-1.16
				c-0.146-0.254-0.802-1.228-3.046-1.228c-1.679,0-2.994,0.996-2.994,2.689c0,1.322,0.681,2.111,2.971,3.894l0.681,0.515
				c2.876,2.154,3.557,3.592,3.557,5.447c0,0.951-0.39,2.714-2.072,3.849c-1.046,0.696-2.362,0.975-3.676,0.975
				C38.536,37.113,37.416,36.951,36.417,36.487"/>
			<path style="fill:#141B4D;" d="M68.442,34.045c0.098,0.835,0.267,2.133,1.314,2.459c0.71,0.21,1.341,0.21,1.585,0.21
				c0.122,0,0.192,0.022,0.192,0.113c0,0.143-0.218,0.211-0.51,0.211c-0.535,0-3.168-0.068-4.07-0.142
				c-0.558-0.044-0.679-0.112-0.679-0.23c0-0.093,0.048-0.142,0.17-0.162c0.125-0.023,0.146-0.417,0.097-0.835l-1.172-11.966H65.3
				L59.331,35.76c-0.513,1.025-0.586,1.231-0.806,1.231c-0.169,0-0.292-0.232-0.755-1.067c-0.631-1.135-2.727-5.149-2.848-5.378
				c-0.22-0.418-2.951-5.985-3.219-6.61h-0.098l-0.972,10.761c-0.023,0.369-0.023,0.789-0.023,1.183
				c0,0.349,0.267,0.646,0.634,0.718c0.412,0.093,0.778,0.117,0.923,0.117c0.098,0,0.197,0.045,0.197,0.113
				c0,0.164-0.149,0.211-0.442,0.211c-0.9,0-2.07-0.068-2.265-0.068c-0.218,0-1.387,0.068-2.044,0.068
				c-0.243,0-0.416-0.048-0.416-0.211c0-0.068,0.125-0.113,0.246-0.113c0.193,0,0.363,0,0.728-0.071
				c0.806-0.139,0.88-1.043,0.976-1.925l1.754-15.121c0.049-0.255,0.121-0.417,0.268-0.417c0.147,0,0.245,0.093,0.367,0.348
				l7.452,14.588l7.162-14.565c0.097-0.209,0.194-0.371,0.367-0.371c0.17,0,0.243,0.184,0.292,0.626L68.442,34.045z"/>
			<path style="fill:#141B4D;" d="M72.769,25.982c0-3.619,0-4.269-0.05-5.01c-0.048-0.789-0.242-1.159-1.045-1.321
				c-0.197-0.048-0.61-0.069-0.829-0.069c-0.1,0-0.197-0.045-0.197-0.142c0-0.138,0.124-0.183,0.392-0.183
				c1.096,0,2.582,0.07,2.801,0.07c0.219,0,1.679-0.07,2.412-0.07c0.267,0,0.389,0.045,0.389,0.183c0,0.097-0.097,0.142-0.194,0.142
				c-0.171,0-0.318,0.022-0.61,0.069c-0.656,0.093-0.851,0.51-0.899,1.321c-0.049,0.742-0.049,1.392-0.049,5.01v3.245
				c0,3.341,0.779,4.778,1.826,5.729c1.195,1.066,2.291,1.277,3.678,1.277c1.486,0,2.949-0.673,3.824-1.671
				c1.122-1.322,1.414-3.294,1.414-5.681v-2.899c0-3.619,0-4.269-0.049-5.01c-0.05-0.789-0.243-1.159-1.048-1.321
				c-0.193-0.048-0.608-0.069-0.827-0.069c-0.098,0-0.194-0.045-0.194-0.142c0-0.138,0.122-0.183,0.389-0.183
				c1.097,0,2.435,0.07,2.582,0.07c0.17,0,1.319-0.07,2.045-0.07c0.268,0,0.392,0.045,0.392,0.183c0,0.097-0.098,0.142-0.194,0.142
				c-0.171,0-0.317,0-0.61,0.069c-0.657,0.115-0.851,0.51-0.902,1.321c-0.046,0.742-0.046,1.392-0.046,5.01v2.481
				c0,2.506-0.295,5.287-2.241,6.935c-1.755,1.483-3.583,1.715-5.023,1.715c-0.826,0-3.286-0.091-5.015-1.647
				c-1.195-1.088-2.12-2.711-2.12-6.098V25.982z"/>
			<polygon style="fill:#141B4D;" points="22.863,37.056 17.987,32.598 17.987,32.593 17.983,32.594 17.982,32.593 17.982,32.598 
				13.102,37.056 17.98,35.483 17.989,35.483 			"/>
			<polygon style="fill:#141B4D;" points="17.987,32.586 19.594,28.175 23.181,27.743 			"/>
			<polygon style="fill:#141B4D;" points="26.809,29.182 23.181,27.743 23.079,21.812 			"/>
			<polygon style="fill:#141B4D;" points="23.966,19.142 27.592,19.14 23.082,21.816 			"/>
			<polygon style="fill:#8A704C;" points="17.982,32.586 16.375,28.175 12.787,27.743 			"/>
			<polygon style="fill:#8A704C;" points="9.156,29.182 12.786,27.743 12.888,21.812 			"/>
			<polygon style="fill:#8A704C;" points="11.999,19.142 8.378,19.14 12.888,21.816 			"/>
			<path style="fill:#8A704C;" d="M30.41,10.276c-3.235,3.046-5.457,1.708-6.599,1.462c-0.601-0.242-1.356-0.386-2.175-0.386
				c-1.976,0-3.578,0.842-3.578,1.879c0,0.376,0.211,0.725,0.573,1.016c0.37-0.344,0.943-0.62,1.627-0.781
				c0.698-0.12,1.878-0.214,3.286,0.142c0.125,0.035,0.261,0.075,0.407,0.109c0.17,0.053,0.322,0.088,0.455,0.115
				c0.061,0.013,0.11,0.026,0.174,0.035c3.662,0.811,5.859-1.025,5.859-1.025L30.41,10.276z"/>
			<path style="fill:#141B4D;" d="M17.659,42.265c0,0-2.039-0.006-3.038-0.493c-1.81-0.872-2.155-3.553-2.383-5.767
				c-0.024-0.243-1.709-0.774-2.509-1.507c-1.303-1.191-1.104-4.905-1.104-5.142c0-0.241-2.108-1.274-2.108-3.574
				c0-0.971,0.018-6.406,0.018-6.406c-1.374-1.703-2.249-1.726-3.346-1.383c-1.361,0.435-1.754,1.442-3.173,1.643
				C0.015,19.948,0,36.146,0,36.146c0,4.991,0.917,8.438,6.033,12.275c4.743,3.556,8.418,3.468,11.621,9.293
				C17.709,57.807,17.674,42.265,17.659,42.265"/>
			<path style="fill:#141B4D;" d="M36.155,46.378c-0.09-0.039-0.108-0.067-0.108-0.189c0-0.304,0.022-0.636,0.028-0.725
				c0.006-0.084,0.024-0.143,0.07-0.143c0.049,0,0.055,0.049,0.055,0.093c0,0.072,0.024,0.189,0.05,0.283
				c0.124,0.409,0.456,0.559,0.805,0.559c0.505,0,0.755-0.337,0.755-0.631c0-0.272-0.085-0.532-0.553-0.884l-0.259-0.2
				c-0.618-0.476-0.832-0.864-0.832-1.312c0-0.609,0.518-1.045,1.3-1.045c0.365,0,0.603,0.055,0.748,0.094
				c0.051,0.01,0.08,0.027,0.08,0.067c0,0.072-0.023,0.232-0.023,0.664c0,0.121-0.017,0.166-0.063,0.166
				c-0.037,0-0.055-0.035-0.055-0.1c0-0.05-0.03-0.221-0.147-0.366c-0.084-0.106-0.249-0.272-0.613-0.272
				c-0.416,0-0.671,0.239-0.671,0.572c0,0.254,0.131,0.447,0.599,0.796l0.156,0.116c0.676,0.515,0.923,0.886,0.923,1.411
				c0,0.322-0.124,0.703-0.529,0.963c-0.282,0.176-0.595,0.228-0.894,0.228C36.651,46.522,36.397,46.482,36.155,46.378"/>
			<path style="fill:#141B4D;" d="M39.768,43.865c0-0.841,0-0.996-0.01-1.171c-0.013-0.189-0.07-0.283-0.193-0.312
				c-0.062-0.017-0.135-0.022-0.202-0.022c-0.057,0-0.091-0.01-0.091-0.055c0-0.032,0.046-0.044,0.137-0.044
				c0.213,0,0.567,0.017,0.73,0.017c0.14,0,0.474-0.017,0.688-0.017c0.072,0,0.117,0.012,0.117,0.044
				c0,0.045-0.032,0.055-0.089,0.055c-0.057,0-0.102,0.005-0.169,0.017c-0.153,0.028-0.197,0.122-0.21,0.317
				c-0.01,0.175-0.01,0.331-0.01,1.171v0.973c0,0.538,0,0.974,0.023,1.213c0.017,0.148,0.055,0.248,0.225,0.27
				c0.077,0.012,0.202,0.023,0.286,0.023c0.062,0,0.09,0.015,0.09,0.042c0,0.041-0.045,0.057-0.108,0.057
				c-0.37,0-0.726-0.015-0.877-0.015c-0.13,0-0.484,0.015-0.708,0.015c-0.073,0-0.112-0.015-0.112-0.057
				c0-0.027,0.022-0.042,0.089-0.042c0.085,0,0.152-0.012,0.203-0.023c0.112-0.022,0.147-0.116,0.162-0.278
				c0.03-0.23,0.03-0.667,0.03-1.205V43.865z"/>
			<path style="fill:#141B4D;" d="M42.653,45.692c0.013,0.431,0.085,0.575,0.198,0.613c0.095,0.035,0.202,0.04,0.291,0.04
				c0.064,0,0.097,0.01,0.097,0.044c0,0.045-0.05,0.055-0.13,0.055c-0.366,0-0.59-0.015-0.698-0.015
				c-0.05,0-0.314,0.015-0.605,0.015c-0.076,0-0.125-0.005-0.125-0.055c0-0.033,0.033-0.044,0.089-0.044
				c0.075,0,0.174-0.005,0.255-0.028c0.146-0.044,0.167-0.205,0.174-0.686l0.05-3.274c0-0.112,0.018-0.189,0.072-0.189
				c0.063,0,0.113,0.072,0.209,0.171c0.068,0.072,0.923,0.973,1.745,1.777c0.383,0.376,1.142,1.171,1.236,1.262h0.028l-0.055-2.485
				c-0.006-0.337-0.057-0.442-0.191-0.497c-0.086-0.035-0.219-0.035-0.299-0.035c-0.068,0-0.09-0.015-0.09-0.049
				c0-0.044,0.062-0.049,0.147-0.049c0.292,0,0.562,0.015,0.681,0.015c0.061,0,0.274-0.015,0.551-0.015
				c0.073,0,0.13,0.005,0.13,0.049c0,0.033-0.035,0.049-0.104,0.049c-0.054,0-0.099,0-0.169,0.017
				c-0.156,0.045-0.201,0.161-0.207,0.471l-0.063,3.491c0,0.121-0.021,0.171-0.071,0.171c-0.062,0-0.13-0.061-0.192-0.122
				c-0.354-0.332-1.075-1.056-1.659-1.626c-0.614-0.597-1.239-1.29-1.341-1.394h-0.015L42.653,45.692z"/>
			<path style="fill:#141B4D;" d="M51.084,46.074c0,0.149-0.006,0.16-0.075,0.198c-0.366,0.188-0.916,0.25-1.355,0.25
				c-1.378,0-2.599-0.642-2.599-2.169c0-0.886,0.468-1.505,0.978-1.809c0.541-0.321,1.042-0.359,1.513-0.359
				c0.39,0,0.885,0.066,0.997,0.088c0.119,0.022,0.316,0.057,0.443,0.06c0.07,0.006,0.08,0.028,0.08,0.067
				c0,0.061-0.039,0.216-0.039,0.906c0,0.089-0.018,0.117-0.062,0.117c-0.04,0-0.053-0.028-0.057-0.072
				c-0.017-0.127-0.044-0.304-0.191-0.46c-0.17-0.176-0.621-0.431-1.254-0.431c-0.31,0-0.721,0.023-1.115,0.344
				c-0.316,0.26-0.518,0.675-0.518,1.356c0,1.189,0.771,2.079,1.958,2.079c0.148,0,0.344,0,0.479-0.059
				c0.084-0.04,0.107-0.112,0.107-0.206v-0.52c0-0.275,0-0.487-0.006-0.651c-0.006-0.189-0.055-0.278-0.241-0.317
				c-0.046-0.01-0.142-0.015-0.219-0.015c-0.051,0-0.085-0.012-0.085-0.045c0-0.044,0.039-0.055,0.117-0.055
				c0.294,0,0.648,0.017,0.817,0.017c0.174,0,0.474-0.017,0.658-0.017c0.073,0,0.115,0.012,0.115,0.055
				c0,0.033-0.035,0.045-0.075,0.045c-0.045,0-0.086,0.005-0.152,0.015c-0.152,0.027-0.209,0.121-0.215,0.317
				c-0.004,0.165-0.004,0.385-0.004,0.663V46.074z"/>
			<path style="fill:#141B4D;" d="M54.054,44.724c0.027,0,0.033-0.018,0.027-0.033l-0.505-1.367c-0.006-0.021-0.01-0.049-0.03-0.049
				c-0.017,0-0.028,0.028-0.032,0.049l-0.518,1.361c-0.006,0.022,0,0.04,0.022,0.04H54.054z M52.906,44.999
				c-0.028,0-0.039,0.012-0.05,0.045l-0.304,0.792c-0.057,0.136-0.085,0.27-0.085,0.337c0,0.099,0.05,0.171,0.225,0.171h0.084
				c0.068,0,0.085,0.01,0.085,0.044c0,0.044-0.033,0.055-0.098,0.055c-0.179,0-0.42-0.015-0.594-0.015
				c-0.063,0-0.371,0.015-0.665,0.015c-0.073,0-0.108-0.012-0.108-0.055c0-0.033,0.023-0.044,0.07-0.044
				c0.05,0,0.129-0.005,0.173-0.012c0.26-0.033,0.366-0.221,0.479-0.497l1.412-3.476c0.068-0.16,0.102-0.22,0.157-0.22
				c0.053,0,0.085,0.049,0.142,0.178c0.135,0.303,1.036,2.559,1.396,3.401c0.214,0.497,0.376,0.575,0.495,0.602
				c0.085,0.018,0.169,0.023,0.236,0.023c0.045,0,0.073,0.006,0.073,0.044c0,0.044-0.049,0.055-0.259,0.055
				c-0.202,0-0.613,0-1.063-0.012c-0.1-0.004-0.17-0.004-0.17-0.044c0-0.033,0.023-0.044,0.08-0.049
				c0.039-0.012,0.079-0.062,0.05-0.127l-0.451-1.174c-0.01-0.027-0.028-0.039-0.055-0.039H52.906z"/>
			<path style="fill:#141B4D;" d="M56.647,43.865c0-0.841,0-0.996-0.01-1.171c-0.012-0.189-0.057-0.278-0.242-0.317
				c-0.046-0.012-0.14-0.017-0.219-0.017c-0.063,0-0.095-0.01-0.095-0.049c0-0.039,0.037-0.05,0.121-0.05
				c0.299,0,0.653,0.017,0.813,0.017c0.229,0,0.556-0.017,0.815-0.017c0.703,0,0.956,0.233,1.047,0.315
				c0.122,0.117,0.281,0.366,0.281,0.658c0,0.785-0.586,1.34-1.385,1.34c-0.027,0-0.09,0-0.119-0.006
				c-0.028-0.005-0.067-0.012-0.067-0.05c0-0.044,0.039-0.06,0.158-0.06c0.313,0,0.753-0.349,0.753-0.913
				c0-0.182-0.018-0.554-0.332-0.83c-0.202-0.183-0.434-0.215-0.564-0.215c-0.084,0-0.167,0.005-0.219,0.022
				c-0.028,0.01-0.045,0.045-0.045,0.104v2.213c0,0.51,0,0.946,0.028,1.184c0.017,0.156,0.052,0.277,0.22,0.299
				c0.079,0.012,0.203,0.023,0.287,0.023c0.062,0,0.09,0.015,0.09,0.042c0,0.041-0.046,0.057-0.107,0.057
				c-0.372,0-0.726-0.015-0.873-0.015c-0.13,0-0.484,0.015-0.71,0.015c-0.073,0-0.111-0.015-0.111-0.057
				c0-0.027,0.022-0.042,0.09-0.042c0.084,0,0.151-0.012,0.202-0.023c0.112-0.022,0.139-0.143,0.162-0.305
				c0.028-0.232,0.028-0.668,0.028-1.178V43.865z"/>
			<path style="fill:#141B4D;" d="M63.558,44.457c0-1.24-0.726-2.008-1.649-2.008c-0.648,0-1.385,0.354-1.385,1.731
				c0,1.151,0.647,2.065,1.727,2.065C62.646,46.245,63.558,46.056,63.558,44.457 M59.748,44.352c0-0.946,0.636-2.168,2.325-2.168
				c1.401,0,2.272,0.802,2.272,2.069c0,1.267-0.899,2.268-2.329,2.268C60.401,46.521,59.748,45.332,59.748,44.352"/>
			<path style="fill:#141B4D;" d="M66.214,44.303c0,0.059,0.012,0.082,0.05,0.1c0.12,0.037,0.287,0.054,0.426,0.054
				c0.227,0,0.299-0.022,0.401-0.095c0.169-0.121,0.332-0.375,0.332-0.828c0-0.787-0.529-1.013-0.86-1.013
				c-0.14,0-0.242,0.006-0.299,0.022c-0.039,0.012-0.05,0.033-0.05,0.077V44.303z M65.551,43.865c0-0.841,0-0.996-0.01-1.171
				c-0.013-0.189-0.059-0.278-0.245-0.317c-0.044-0.012-0.139-0.017-0.219-0.017c-0.062,0-0.095-0.01-0.095-0.049
				c0-0.039,0.04-0.05,0.124-0.05c0.299,0,0.653,0.017,0.77,0.017c0.192,0,0.621-0.017,0.793-0.017c0.355,0,0.733,0.032,1.036,0.238
				c0.158,0.104,0.383,0.387,0.383,0.757c0,0.409-0.173,0.787-0.743,1.24c0.501,0.619,0.891,1.112,1.222,1.456
				c0.316,0.321,0.546,0.359,0.631,0.376c0.062,0.01,0.112,0.017,0.157,0.017c0.044,0,0.067,0.015,0.067,0.042
				c0,0.045-0.039,0.057-0.108,0.057H68.78c-0.316,0-0.455-0.028-0.601-0.106c-0.242-0.126-0.456-0.386-0.771-0.814
				c-0.225-0.304-0.483-0.681-0.556-0.763c-0.028-0.033-0.063-0.037-0.102-0.037l-0.491-0.012c-0.027,0-0.044,0.012-0.044,0.042
				v0.079c0,0.515,0,0.951,0.027,1.183c0.017,0.162,0.052,0.283,0.22,0.305c0.084,0.012,0.207,0.023,0.277,0.023
				c0.044,0,0.067,0.015,0.067,0.042c0,0.041-0.039,0.057-0.115,0.057c-0.325,0-0.742-0.015-0.827-0.015
				c-0.106,0-0.46,0.015-0.685,0.015c-0.073,0-0.112-0.015-0.112-0.057c0-0.027,0.023-0.042,0.09-0.042
				c0.085,0,0.151-0.012,0.202-0.023c0.112-0.022,0.14-0.143,0.164-0.305c0.028-0.232,0.028-0.668,0.028-1.178V43.865z"/>
			<path style="fill:#141B4D;" d="M69.826,43.865c0-0.841,0-0.996-0.01-1.171c-0.012-0.189-0.057-0.278-0.242-0.317
				c-0.046-0.012-0.142-0.017-0.219-0.017c-0.063,0-0.095-0.01-0.095-0.049c0-0.039,0.039-0.05,0.124-0.05
				c0.151,0,0.313,0.005,0.453,0.005c0.148,0.006,0.277,0.012,0.355,0.012c0.18,0,1.301,0,1.408-0.005
				c0.106-0.012,0.197-0.023,0.242-0.035c0.027-0.004,0.061-0.021,0.089-0.021c0.028,0,0.033,0.021,0.033,0.049
				c0,0.039-0.027,0.106-0.045,0.359c-0.005,0.055-0.017,0.3-0.028,0.366c-0.004,0.028-0.015,0.061-0.055,0.061
				c-0.039,0-0.05-0.027-0.05-0.077c0-0.039-0.005-0.131-0.035-0.2c-0.039-0.099-0.095-0.166-0.376-0.198
				c-0.097-0.01-0.686-0.022-0.8-0.022c-0.028,0-0.04,0.017-0.04,0.054v1.399c0,0.04,0.008,0.062,0.04,0.062
				c0.125,0,0.771,0,0.902-0.01c0.134-0.012,0.219-0.027,0.268-0.084c0.041-0.044,0.063-0.072,0.091-0.072
				c0.023,0,0.04,0.012,0.04,0.045c0,0.033-0.03,0.121-0.046,0.403c-0.012,0.112-0.022,0.332-0.022,0.372
				c0,0.044,0,0.104-0.05,0.104c-0.039,0-0.052-0.022-0.052-0.05c-0.005-0.054-0.005-0.126-0.022-0.2
				c-0.028-0.109-0.106-0.193-0.316-0.216c-0.108-0.01-0.663-0.015-0.797-0.015c-0.028,0-0.036,0.022-0.036,0.057v0.435
				c0,0.189-0.005,0.698,0,0.859c0.012,0.381,0.102,0.463,0.677,0.463c0.146,0,0.381,0,0.528-0.066
				c0.147-0.067,0.214-0.183,0.252-0.411c0.01-0.06,0.022-0.081,0.063-0.081c0.045,0,0.045,0.044,0.045,0.098
				c0,0.129-0.045,0.505-0.075,0.615c-0.04,0.143-0.089,0.143-0.304,0.143c-0.421,0-0.73-0.01-0.972-0.015
				c-0.242-0.012-0.417-0.015-0.586-0.015c-0.061,0-0.185,0.004-0.321,0.004c-0.129,0.006-0.277,0.012-0.389,0.012
				c-0.071,0-0.111-0.015-0.111-0.057c0-0.027,0.022-0.042,0.089-0.042c0.085,0,0.152-0.012,0.204-0.023
				c0.112-0.022,0.139-0.143,0.162-0.305c0.028-0.232,0.028-0.668,0.028-1.178V43.865z"/>
			<path style="fill:#141B4D;" d="M75.336,42.284c0.015-0.094,0.05-0.144,0.095-0.144s0.079,0.027,0.152,0.173l1.535,3.119
				l1.531-3.159c0.039-0.088,0.072-0.133,0.125-0.133c0.049,0,0.084,0.055,0.1,0.173l0.511,3.418
				c0.052,0.348,0.107,0.509,0.276,0.559c0.164,0.05,0.276,0.055,0.349,0.055c0.05,0,0.089,0.006,0.089,0.039
				c0,0.045-0.067,0.061-0.146,0.061c-0.14,0-0.917-0.015-1.141-0.033c-0.13-0.01-0.164-0.027-0.164-0.059
				c0-0.028,0.023-0.046,0.062-0.062c0.035-0.01,0.052-0.082,0.028-0.238l-0.337-2.433H78.38l-1.227,2.51
				c-0.13,0.26-0.157,0.312-0.209,0.312c-0.052,0-0.107-0.112-0.196-0.278c-0.135-0.254-0.581-1.099-0.649-1.255
				c-0.05-0.117-0.388-0.814-0.585-1.228h-0.021L75.2,45.879c-0.012,0.099-0.018,0.171-0.018,0.26c0,0.106,0.073,0.154,0.169,0.176
				c0.102,0.023,0.182,0.028,0.237,0.028c0.046,0,0.085,0.012,0.085,0.039c0,0.05-0.05,0.061-0.135,0.061
				c-0.237,0-0.489-0.015-0.591-0.015c-0.106,0-0.376,0.015-0.558,0.015c-0.057,0-0.1-0.01-0.1-0.061
				c0-0.027,0.033-0.039,0.089-0.039c0.046,0,0.085,0,0.169-0.017c0.158-0.033,0.203-0.25,0.232-0.436L75.336,42.284z"/>
			<path style="fill:#141B4D;" d="M82.452,44.724c0.028,0,0.033-0.018,0.028-0.033l-0.506-1.367
				c-0.006-0.021-0.013-0.049-0.03-0.049c-0.017,0-0.028,0.028-0.033,0.049l-0.518,1.361c-0.006,0.022,0,0.04,0.023,0.04H82.452z
				 M81.304,44.999c-0.03,0-0.041,0.012-0.052,0.045l-0.303,0.792c-0.058,0.136-0.085,0.27-0.085,0.337
				c0,0.099,0.05,0.171,0.225,0.171h0.082c0.07,0,0.086,0.01,0.086,0.044c0,0.044-0.035,0.055-0.098,0.055
				c-0.178,0-0.421-0.015-0.594-0.015c-0.063,0-0.372,0.015-0.665,0.015c-0.073,0-0.108-0.012-0.108-0.055
				c0-0.033,0.023-0.044,0.068-0.044c0.052,0,0.129-0.005,0.174-0.012c0.26-0.033,0.366-0.221,0.479-0.497l1.412-3.476
				c0.068-0.16,0.102-0.22,0.158-0.22c0.051,0,0.085,0.049,0.14,0.178c0.135,0.303,1.036,2.559,1.395,3.401
				c0.215,0.497,0.377,0.575,0.496,0.602c0.085,0.018,0.169,0.023,0.236,0.023c0.045,0,0.073,0.006,0.073,0.044
				c0,0.044-0.052,0.055-0.259,0.055c-0.202,0-0.613,0-1.063-0.012c-0.1-0.004-0.17-0.004-0.17-0.044
				c0-0.033,0.022-0.044,0.08-0.049c0.039-0.012,0.079-0.062,0.05-0.127l-0.451-1.174c-0.01-0.027-0.028-0.039-0.055-0.039H81.304z"
				/>
			<path style="fill:#141B4D;" d="M85.361,45.692c0.01,0.431,0.084,0.575,0.197,0.613c0.095,0.035,0.201,0.04,0.292,0.04
				c0.062,0,0.094,0.01,0.094,0.044c0,0.045-0.049,0.055-0.129,0.055c-0.366,0-0.59-0.015-0.697-0.015
				c-0.052,0-0.316,0.015-0.608,0.015c-0.073,0-0.124-0.005-0.124-0.055c0-0.033,0.033-0.044,0.089-0.044
				c0.075,0,0.176-0.005,0.254-0.028c0.147-0.044,0.17-0.205,0.175-0.686l0.051-3.274c0-0.112,0.015-0.189,0.072-0.189
				c0.061,0,0.113,0.072,0.209,0.171c0.067,0.072,0.922,0.973,1.744,1.777c0.383,0.376,1.142,1.171,1.238,1.262h0.028l-0.057-2.485
				c-0.005-0.337-0.055-0.442-0.192-0.497c-0.084-0.035-0.219-0.035-0.297-0.035c-0.067,0-0.091-0.015-0.091-0.049
				c0-0.044,0.064-0.049,0.149-0.049c0.291,0,0.562,0.015,0.679,0.015c0.063,0,0.277-0.015,0.551-0.015
				c0.073,0,0.13,0.005,0.13,0.049c0,0.033-0.032,0.049-0.102,0.049c-0.055,0-0.102,0-0.169,0.017
				c-0.156,0.045-0.202,0.161-0.209,0.471l-0.062,3.491c0,0.121-0.023,0.171-0.072,0.171c-0.062,0-0.13-0.061-0.191-0.122
				c-0.355-0.332-1.075-1.056-1.66-1.626c-0.614-0.597-1.238-1.29-1.339-1.394h-0.018L85.361,45.692z"/>
			<path style="fill:#141B4D;" d="M91.774,44.724c0.028,0,0.033-0.018,0.028-0.033l-0.506-1.367
				c-0.005-0.021-0.01-0.049-0.028-0.049c-0.017,0-0.028,0.028-0.032,0.049l-0.519,1.361c-0.006,0.022,0,0.04,0.022,0.04H91.774z
				 M90.627,44.999c-0.028,0-0.039,0.012-0.05,0.045l-0.303,0.792c-0.058,0.136-0.085,0.27-0.085,0.337
				c0,0.099,0.05,0.171,0.223,0.171h0.086c0.067,0,0.085,0.01,0.085,0.044c0,0.044-0.035,0.055-0.095,0.055
				c-0.182,0-0.424-0.015-0.596-0.015c-0.063,0-0.372,0.015-0.666,0.015c-0.072,0-0.106-0.012-0.106-0.055
				c0-0.033,0.023-0.044,0.066-0.044c0.052,0,0.13-0.005,0.176-0.012c0.259-0.033,0.365-0.221,0.477-0.497l1.413-3.476
				c0.067-0.16,0.102-0.22,0.157-0.22c0.05,0,0.085,0.049,0.142,0.178c0.135,0.303,1.036,2.559,1.395,3.401
				c0.214,0.497,0.377,0.575,0.496,0.602c0.085,0.018,0.169,0.023,0.236,0.023c0.046,0,0.075,0.006,0.075,0.044
				c0,0.044-0.052,0.055-0.261,0.055c-0.202,0-0.613,0-1.063-0.012c-0.099-0.004-0.169-0.004-0.169-0.044
				c0-0.033,0.022-0.044,0.08-0.049c0.037-0.012,0.079-0.062,0.05-0.127l-0.449-1.174c-0.013-0.027-0.028-0.039-0.057-0.039H90.627z
				"/>
			<path style="fill:#141B4D;" d="M97.785,46.074c0,0.149-0.008,0.16-0.073,0.198c-0.366,0.188-0.917,0.25-1.358,0.25
				c-1.379,0-2.599-0.642-2.599-2.169c0-0.886,0.468-1.505,0.98-1.809c0.54-0.321,1.042-0.359,1.515-0.359
				c0.388,0,0.881,0.066,0.996,0.088c0.117,0.022,0.314,0.057,0.443,0.06c0.067,0.006,0.079,0.028,0.079,0.067
				c0,0.061-0.04,0.216-0.04,0.906c0,0.089-0.015,0.117-0.061,0.117c-0.039,0-0.052-0.028-0.057-0.072
				c-0.018-0.127-0.045-0.304-0.192-0.46c-0.169-0.176-0.618-0.431-1.254-0.431c-0.309,0-0.72,0.023-1.113,0.344
				c-0.316,0.26-0.518,0.675-0.518,1.356c0,1.189,0.77,2.079,1.958,2.079c0.147,0,0.344,0,0.478-0.059
				c0.084-0.04,0.106-0.112,0.106-0.206v-0.52c0-0.275,0-0.487-0.004-0.651c-0.006-0.189-0.055-0.278-0.243-0.317
				c-0.045-0.01-0.139-0.015-0.219-0.015c-0.05,0-0.085-0.012-0.085-0.045c0-0.044,0.04-0.055,0.118-0.055
				c0.294,0,0.648,0.017,0.815,0.017c0.175,0,0.474-0.017,0.659-0.017c0.073,0,0.113,0.012,0.113,0.055
				c0,0.033-0.035,0.045-0.073,0.045c-0.046,0-0.085,0.005-0.152,0.015c-0.153,0.027-0.21,0.121-0.214,0.317
				c-0.005,0.165-0.005,0.385-0.005,0.663V46.074z"/>
			<path style="fill:#141B4D;" d="M99.382,43.865c0-0.841,0-0.996-0.012-1.171c-0.01-0.189-0.054-0.278-0.242-0.317
				c-0.045-0.012-0.14-0.017-0.219-0.017c-0.062,0-0.094-0.01-0.094-0.049c0-0.039,0.039-0.05,0.122-0.05
				c0.152,0,0.314,0.005,0.455,0.005c0.149,0.006,0.277,0.012,0.355,0.012c0.18,0,1.3,0,1.408-0.005
				c0.107-0.012,0.196-0.023,0.242-0.035c0.027-0.004,0.062-0.021,0.089-0.021c0.028,0,0.033,0.021,0.033,0.049
				c0,0.039-0.03,0.106-0.044,0.359c-0.006,0.055-0.017,0.3-0.03,0.366c-0.004,0.028-0.017,0.061-0.057,0.061
				c-0.039,0-0.049-0.027-0.049-0.077c0-0.039-0.006-0.131-0.035-0.2c-0.039-0.099-0.094-0.166-0.377-0.198
				c-0.094-0.01-0.686-0.022-0.799-0.022c-0.027,0-0.04,0.017-0.04,0.054v1.399c0,0.04,0.006,0.062,0.04,0.062
				c0.122,0,0.771,0,0.9-0.01c0.135-0.012,0.219-0.027,0.27-0.084c0.04-0.044,0.061-0.072,0.089-0.072
				c0.024,0,0.04,0.012,0.04,0.045c0,0.033-0.028,0.121-0.044,0.403c-0.012,0.112-0.024,0.332-0.024,0.372
				c0,0.044,0,0.104-0.05,0.104c-0.04,0-0.049-0.022-0.049-0.05c-0.006-0.054-0.006-0.126-0.023-0.2
				c-0.027-0.109-0.107-0.193-0.316-0.216c-0.107-0.01-0.663-0.015-0.8-0.015c-0.027,0-0.033,0.022-0.033,0.057v0.435
				c0,0.189-0.004,0.698,0,0.859c0.013,0.381,0.102,0.463,0.675,0.463c0.148,0,0.383,0,0.532-0.066
				c0.146-0.067,0.212-0.183,0.251-0.411c0.013-0.06,0.022-0.081,0.063-0.081c0.044,0,0.044,0.044,0.044,0.098
				c0,0.129-0.044,0.505-0.075,0.615c-0.037,0.143-0.09,0.143-0.303,0.143c-0.421,0-0.732-0.01-0.974-0.015
				c-0.24-0.012-0.415-0.015-0.583-0.015c-0.062,0-0.187,0.004-0.323,0.004c-0.129,0.006-0.273,0.012-0.388,0.012
				c-0.072,0-0.111-0.015-0.111-0.057c0-0.027,0.022-0.042,0.089-0.042c0.086,0,0.152-0.012,0.204-0.023
				c0.112-0.022,0.14-0.143,0.162-0.305c0.028-0.232,0.028-0.668,0.028-1.178V43.865z"/>
			<path style="fill:#141B4D;" d="M103.174,42.284c0.017-0.094,0.051-0.144,0.098-0.144c0.045,0,0.076,0.027,0.149,0.173
				l1.536,3.119l1.531-3.159c0.039-0.088,0.073-0.133,0.124-0.133c0.052,0,0.084,0.055,0.099,0.173l0.513,3.418
				c0.052,0.348,0.109,0.509,0.277,0.559c0.162,0.05,0.277,0.055,0.35,0.055c0.049,0,0.089,0.006,0.089,0.039
				c0,0.045-0.07,0.061-0.146,0.061c-0.142,0-0.92-0.015-1.144-0.033c-0.128-0.01-0.162-0.027-0.162-0.059
				c0-0.028,0.022-0.046,0.061-0.062c0.035-0.01,0.052-0.082,0.028-0.238l-0.337-2.433h-0.021l-1.227,2.51
				c-0.131,0.26-0.16,0.312-0.21,0.312c-0.049,0-0.106-0.112-0.196-0.278c-0.135-0.254-0.581-1.099-0.648-1.255
				c-0.05-0.117-0.388-0.814-0.583-1.228h-0.026l-0.29,2.201c-0.013,0.099-0.018,0.171-0.018,0.26c0,0.106,0.073,0.154,0.169,0.176
				c0.1,0.023,0.18,0.028,0.237,0.028c0.045,0,0.086,0.012,0.086,0.039c0,0.05-0.054,0.061-0.137,0.061
				c-0.236,0-0.489-0.015-0.59-0.015c-0.108,0-0.377,0.015-0.559,0.015c-0.055,0-0.102-0.01-0.102-0.061
				c0-0.027,0.036-0.039,0.09-0.039c0.045,0,0.084,0,0.17-0.017c0.158-0.033,0.204-0.25,0.229-0.436L103.174,42.284z"/>
			<path style="fill:#141B4D;" d="M108.864,43.865c0-0.841,0-0.996-0.013-1.171c-0.009-0.189-0.054-0.278-0.241-0.317
				c-0.045-0.012-0.142-0.017-0.22-0.017c-0.061,0-0.097-0.01-0.097-0.049c0-0.039,0.041-0.05,0.125-0.05
				c0.152,0,0.316,0.005,0.456,0.005c0.146,0.006,0.274,0.012,0.355,0.012c0.179,0,1.298,0,1.408-0.005
				c0.106-0.012,0.194-0.023,0.242-0.035c0.026-0.004,0.061-0.021,0.089-0.021c0.026,0,0.033,0.021,0.033,0.049
				c0,0.039-0.028,0.106-0.046,0.359c-0.005,0.055-0.015,0.3-0.027,0.366c-0.006,0.028-0.017,0.061-0.057,0.061
				s-0.052-0.027-0.052-0.077c0-0.039-0.005-0.131-0.032-0.2c-0.039-0.099-0.097-0.166-0.377-0.198
				c-0.098-0.01-0.686-0.022-0.799-0.022c-0.03,0-0.04,0.017-0.04,0.054v1.399c0,0.04,0.005,0.062,0.04,0.062
				c0.122,0,0.771,0,0.899-0.01c0.137-0.012,0.219-0.027,0.27-0.084c0.039-0.044,0.062-0.072,0.09-0.072
				c0.023,0,0.04,0.012,0.04,0.045c0,0.033-0.027,0.121-0.045,0.403c-0.012,0.112-0.023,0.332-0.023,0.372
				c0,0.044,0,0.104-0.05,0.104c-0.039,0-0.05-0.022-0.05-0.05c-0.006-0.054-0.006-0.126-0.022-0.2
				c-0.03-0.109-0.109-0.193-0.316-0.216c-0.107-0.01-0.665-0.015-0.799-0.015c-0.03,0-0.035,0.022-0.035,0.057v0.435
				c0,0.189-0.004,0.698,0,0.859c0.01,0.381,0.102,0.463,0.675,0.463c0.146,0,0.383,0,0.528-0.066
				c0.147-0.067,0.214-0.183,0.255-0.411c0.009-0.06,0.022-0.081,0.061-0.081c0.046,0,0.046,0.044,0.046,0.098
				c0,0.129-0.046,0.505-0.072,0.615c-0.041,0.143-0.091,0.143-0.305,0.143c-0.421,0-0.732-0.01-0.974-0.015
				c-0.242-0.012-0.416-0.015-0.586-0.015c-0.062,0-0.184,0.004-0.319,0.004c-0.13,0.006-0.277,0.012-0.389,0.012
				c-0.073,0-0.112-0.015-0.112-0.057c0-0.027,0.023-0.042,0.089-0.042c0.084,0,0.153-0.012,0.203-0.023
				c0.112-0.022,0.14-0.143,0.164-0.305c0.028-0.232,0.028-0.668,0.028-1.178V43.865z"/>
			<path style="fill:#141B4D;" d="M112.762,45.692c0.013,0.431,0.085,0.575,0.197,0.613c0.095,0.035,0.203,0.04,0.292,0.04
				c0.062,0,0.097,0.01,0.097,0.044c0,0.045-0.052,0.055-0.131,0.055c-0.366,0-0.59-0.015-0.697-0.015
				c-0.048,0-0.316,0.015-0.607,0.015c-0.073,0-0.125-0.005-0.125-0.055c0-0.033,0.033-0.044,0.091-0.044
				c0.072,0,0.174-0.005,0.252-0.028c0.146-0.044,0.169-0.205,0.174-0.686l0.051-3.274c0-0.112,0.017-0.189,0.073-0.189
				c0.061,0,0.112,0.072,0.207,0.171c0.068,0.072,0.922,0.973,1.745,1.777c0.381,0.376,1.142,1.171,1.236,1.262h0.028l-0.055-2.485
				c-0.006-0.337-0.058-0.442-0.192-0.497c-0.085-0.035-0.219-0.035-0.299-0.035c-0.067,0-0.089-0.015-0.089-0.049
				c0-0.044,0.062-0.049,0.147-0.049c0.29,0,0.564,0.015,0.681,0.015c0.062,0,0.274-0.015,0.55-0.015
				c0.072,0,0.129,0.005,0.129,0.049c0,0.033-0.032,0.049-0.102,0.049c-0.054,0-0.1,0-0.166,0.017
				c-0.16,0.045-0.204,0.161-0.21,0.471l-0.061,3.491c0,0.121-0.023,0.171-0.073,0.171c-0.063,0-0.13-0.061-0.192-0.122
				c-0.355-0.332-1.075-1.056-1.659-1.626c-0.614-0.597-1.238-1.29-1.339-1.394h-0.019L112.762,45.692z"/>
			<path style="fill:#141B4D;" d="M118.553,42.571l-0.838,0.022c-0.327,0.01-0.461,0.039-0.547,0.161
				c-0.055,0.082-0.082,0.149-0.094,0.193c-0.012,0.044-0.028,0.067-0.062,0.067c-0.039,0-0.052-0.028-0.052-0.089
				c0-0.089,0.106-0.592,0.118-0.637c0.018-0.071,0.033-0.104,0.068-0.104c0.045,0,0.1,0.055,0.241,0.066
				c0.162,0.017,0.377,0.028,0.564,0.028h2.228c0.179,0,0.304-0.017,0.389-0.028c0.084-0.015,0.128-0.027,0.152-0.027
				c0.037,0,0.045,0.035,0.045,0.116c0,0.116-0.018,0.498-0.018,0.641c-0.006,0.057-0.017,0.09-0.052,0.09
				c-0.044,0-0.055-0.03-0.061-0.111l-0.006-0.062c-0.01-0.143-0.162-0.297-0.663-0.309l-0.71-0.017v2.267
				c0,0.51,0,0.947,0.028,1.184c0.015,0.156,0.051,0.277,0.219,0.299c0.08,0.012,0.202,0.023,0.287,0.023
				c0.061,0,0.09,0.015,0.09,0.042c0,0.041-0.044,0.057-0.108,0.057c-0.371,0-0.726-0.015-0.88-0.015
				c-0.133,0-0.488,0.015-0.711,0.015c-0.075,0-0.113-0.015-0.113-0.057c0-0.027,0.022-0.042,0.09-0.042
				c0.085,0,0.152-0.012,0.202-0.023c0.112-0.022,0.147-0.143,0.162-0.304c0.03-0.232,0.03-0.669,0.03-1.179V42.571z"/>
			<path style="fill:#141B4D;" d="M36.224,50.467c0-0.841,0-0.996-0.013-1.173c-0.01-0.188-0.057-0.277-0.242-0.315
				c-0.045-0.012-0.14-0.017-0.219-0.017c-0.062,0-0.097-0.01-0.097-0.05c0-0.037,0.04-0.049,0.124-0.049
				c0.299,0,0.653,0.015,0.823,0.015c0.133,0,0.489-0.015,0.692-0.015c0.084,0,0.124,0.012,0.124,0.049c0,0.04-0.035,0.05-0.09,0.05
				c-0.062,0-0.095,0.005-0.162,0.017c-0.153,0.028-0.197,0.122-0.207,0.315c-0.013,0.176-0.013,0.332-0.013,1.173v0.775
				c0,0.802,0.162,1.139,0.438,1.361c0.255,0.203,0.513,0.227,0.706,0.227c0.246,0,0.551-0.077,0.774-0.299
				c0.309-0.305,0.328-0.802,0.328-1.372v-0.691c0-0.841,0-0.996-0.013-1.173c-0.01-0.188-0.057-0.277-0.242-0.315
				c-0.045-0.012-0.14-0.017-0.201-0.017c-0.063,0-0.095-0.01-0.095-0.05c0-0.037,0.039-0.049,0.117-0.049
				c0.287,0,0.641,0.015,0.648,0.015c0.067,0,0.42-0.015,0.64-0.015c0.08,0,0.118,0.012,0.118,0.049c0,0.04-0.033,0.05-0.102,0.05
				c-0.062,0-0.097,0.005-0.164,0.017c-0.152,0.028-0.196,0.122-0.207,0.315c-0.012,0.176-0.012,0.332-0.012,1.173v0.592
				c0,0.613-0.062,1.267-0.533,1.666c-0.401,0.336-0.806,0.398-1.172,0.398c-0.298,0-0.837-0.017-1.249-0.382
				c-0.286-0.254-0.498-0.663-0.498-1.465V50.467z"/>
			<path style="fill:#141B4D;" d="M41.602,52.293c0.01,0.431,0.084,0.575,0.197,0.614c0.095,0.033,0.202,0.037,0.291,0.037
				c0.063,0,0.098,0.012,0.098,0.046c0,0.044-0.052,0.054-0.131,0.054c-0.366,0-0.591-0.017-0.697-0.017
				c-0.052,0-0.316,0.017-0.608,0.017c-0.073,0-0.125-0.005-0.125-0.054c0-0.035,0.035-0.046,0.09-0.046
				c0.073,0,0.175-0.004,0.254-0.027c0.147-0.044,0.169-0.205,0.174-0.685l0.052-3.277c0-0.109,0.017-0.187,0.073-0.187
				c0.062,0,0.112,0.072,0.209,0.171c0.067,0.072,0.922,0.974,1.744,1.777c0.383,0.376,1.141,1.173,1.236,1.26h0.03l-0.055-2.483
				c-0.008-0.337-0.058-0.443-0.193-0.497c-0.084-0.035-0.218-0.035-0.299-0.035c-0.066,0-0.089-0.015-0.089-0.049
				c0-0.045,0.062-0.05,0.146-0.05c0.292,0,0.563,0.017,0.681,0.017c0.063,0,0.277-0.017,0.551-0.017c0.073,0,0.13,0.005,0.13,0.05
				c0,0.033-0.035,0.049-0.102,0.049c-0.055,0-0.099,0-0.169,0.017c-0.157,0.045-0.203,0.161-0.207,0.471l-0.063,3.491
				c0,0.121-0.022,0.171-0.073,0.171c-0.061,0-0.128-0.062-0.192-0.121c-0.353-0.332-1.073-1.058-1.659-1.627
				c-0.612-0.599-1.239-1.29-1.338-1.394h-0.018L41.602,52.293z"/>
			<path style="fill:#141B4D;" d="M46.643,50.467c0-0.841,0-0.996-0.01-1.173c-0.012-0.188-0.068-0.282-0.193-0.309
				c-0.061-0.018-0.134-0.023-0.202-0.023c-0.055,0-0.089-0.01-0.089-0.054c0-0.033,0.045-0.045,0.135-0.045
				c0.214,0,0.568,0.015,0.732,0.015c0.14,0,0.473-0.015,0.685-0.015c0.075,0,0.119,0.012,0.119,0.045
				c0,0.044-0.032,0.054-0.09,0.054c-0.055,0-0.102,0.005-0.169,0.017c-0.152,0.028-0.197,0.122-0.209,0.315
				c-0.012,0.176-0.012,0.332-0.012,1.173v0.973c0,0.537,0,0.974,0.023,1.213c0.017,0.148,0.057,0.247,0.227,0.27
				c0.077,0.01,0.201,0.022,0.286,0.022c0.062,0,0.09,0.017,0.09,0.045c0,0.039-0.045,0.055-0.106,0.055
				c-0.372,0-0.726-0.017-0.88-0.017c-0.129,0-0.483,0.017-0.707,0.017c-0.075,0-0.115-0.017-0.115-0.055
				c0-0.028,0.023-0.045,0.09-0.045c0.085,0,0.153-0.012,0.204-0.022c0.112-0.023,0.146-0.117,0.162-0.277
				c0.028-0.232,0.028-0.669,0.028-1.206V50.467z"/>
			<path style="fill:#141B4D;" d="M48.697,49.405c-0.13-0.304-0.225-0.366-0.429-0.42c-0.084-0.023-0.174-0.023-0.218-0.023
				c-0.052,0-0.07-0.015-0.07-0.05c0-0.044,0.063-0.049,0.147-0.049c0.299,0,0.619,0.015,0.817,0.015
				c0.14,0,0.412-0.015,0.693-0.015c0.067,0,0.128,0.012,0.128,0.049c0,0.04-0.032,0.05-0.084,0.05c-0.089,0-0.175,0.005-0.219,0.04
				c-0.039,0.027-0.058,0.066-0.058,0.116c0,0.072,0.052,0.227,0.131,0.425l0.967,2.512h0.022c0.243-0.608,0.975-2.389,1.109-2.755
				c0.028-0.071,0.051-0.155,0.051-0.205c0-0.044-0.023-0.088-0.073-0.104c-0.068-0.023-0.153-0.028-0.225-0.028
				c-0.049,0-0.095-0.006-0.095-0.044c0-0.044,0.05-0.055,0.156-0.055c0.283,0,0.519,0.015,0.592,0.015
				c0.095,0,0.359-0.015,0.528-0.015c0.073,0,0.119,0.012,0.119,0.049c0,0.04-0.033,0.05-0.09,0.05c-0.055,0-0.173,0-0.274,0.067
				c-0.073,0.05-0.158,0.144-0.309,0.498c-0.222,0.52-0.372,0.817-0.675,1.498c-0.362,0.807-0.627,1.411-0.751,1.688
				c-0.147,0.321-0.179,0.409-0.258,0.409c-0.073,0-0.108-0.077-0.214-0.337L48.697,49.405z"/>
			<path style="fill:#141B4D;" d="M53.315,50.467c0-0.841,0-0.996-0.01-1.173c-0.012-0.188-0.057-0.277-0.242-0.315
				c-0.046-0.012-0.142-0.017-0.219-0.017c-0.063,0-0.095-0.01-0.095-0.05c0-0.037,0.039-0.049,0.124-0.049
				c0.151,0,0.316,0.005,0.453,0.005c0.149,0.006,0.277,0.01,0.355,0.01c0.182,0,1.3,0,1.408-0.004
				c0.106-0.012,0.197-0.023,0.242-0.035c0.027-0.005,0.062-0.021,0.09-0.021c0.027,0,0.032,0.021,0.032,0.049
				c0,0.04-0.027,0.104-0.045,0.36c-0.005,0.054-0.015,0.299-0.028,0.366c-0.005,0.027-0.017,0.059-0.054,0.059
				c-0.04,0-0.051-0.027-0.051-0.077c0-0.039-0.006-0.133-0.033-0.2c-0.04-0.099-0.097-0.166-0.377-0.198
				c-0.095-0.01-0.688-0.023-0.8-0.023c-0.028,0-0.04,0.018-0.04,0.055v1.401c0,0.039,0.008,0.06,0.04,0.06
				c0.125,0,0.771,0,0.902-0.01c0.134-0.012,0.219-0.028,0.269-0.084c0.04-0.044,0.062-0.072,0.091-0.072
				c0.022,0,0.037,0.012,0.037,0.044c0,0.033-0.027,0.122-0.044,0.404c-0.01,0.112-0.023,0.332-0.023,0.371
				c0,0.044,0,0.104-0.05,0.104c-0.039,0-0.052-0.021-0.052-0.048c-0.005-0.057-0.005-0.129-0.022-0.201
				c-0.028-0.111-0.108-0.193-0.314-0.215c-0.108-0.012-0.663-0.017-0.801-0.017c-0.026,0-0.033,0.022-0.033,0.054v0.438
				c0,0.189-0.004,0.698,0,0.857c0.012,0.382,0.102,0.465,0.676,0.465c0.147,0,0.383,0,0.531-0.066
				c0.144-0.067,0.212-0.183,0.251-0.409c0.013-0.062,0.023-0.084,0.063-0.084c0.045,0,0.045,0.045,0.045,0.1
				c0,0.126-0.045,0.502-0.073,0.614c-0.041,0.143-0.09,0.143-0.305,0.143c-0.421,0-0.73-0.012-0.972-0.015
				c-0.242-0.012-0.416-0.017-0.586-0.017c-0.061,0-0.184,0.005-0.321,0.005c-0.129,0.005-0.274,0.012-0.389,0.012
				c-0.071,0-0.111-0.017-0.111-0.055c0-0.028,0.022-0.045,0.089-0.045c0.085,0,0.153-0.012,0.204-0.022
				c0.112-0.023,0.14-0.143,0.162-0.305c0.028-0.232,0.028-0.668,0.028-1.178V50.467z"/>
			<path style="fill:#141B4D;" d="M57.564,50.905c0,0.061,0.012,0.082,0.05,0.098c0.12,0.04,0.288,0.057,0.429,0.057
				c0.224,0,0.297-0.022,0.399-0.094c0.169-0.122,0.332-0.376,0.332-0.829c0-0.787-0.531-1.014-0.862-1.014
				c-0.14,0-0.241,0.005-0.299,0.023c-0.039,0.01-0.05,0.033-0.05,0.077V50.905z M56.9,50.467c0-0.841,0-0.996-0.01-1.173
				c-0.013-0.188-0.058-0.277-0.242-0.315c-0.046-0.012-0.142-0.017-0.219-0.017c-0.063,0-0.097-0.01-0.097-0.05
				c0-0.037,0.039-0.049,0.122-0.049c0.299,0,0.653,0.015,0.77,0.015c0.193,0,0.621-0.015,0.796-0.015
				c0.354,0,0.73,0.032,1.035,0.238c0.156,0.104,0.383,0.386,0.383,0.757c0,0.411-0.175,0.785-0.744,1.238
				c0.5,0.62,0.89,1.114,1.222,1.456c0.314,0.321,0.545,0.36,0.63,0.377c0.062,0.01,0.112,0.015,0.157,0.015
				c0.045,0,0.067,0.017,0.067,0.045c0,0.044-0.039,0.055-0.107,0.055h-0.535c-0.314,0-0.455-0.028-0.601-0.106
				c-0.242-0.127-0.455-0.387-0.77-0.814c-0.227-0.304-0.484-0.681-0.558-0.763c-0.028-0.033-0.062-0.039-0.102-0.039l-0.489-0.012
				c-0.027,0-0.045,0.012-0.045,0.044v0.079c0,0.515,0,0.951,0.028,1.183c0.017,0.162,0.053,0.282,0.219,0.305
				c0.084,0.01,0.21,0.022,0.277,0.022c0.045,0,0.067,0.017,0.067,0.045c0,0.039-0.039,0.055-0.112,0.055
				c-0.327,0-0.742-0.017-0.828-0.017c-0.107,0-0.461,0.017-0.686,0.017c-0.073,0-0.112-0.017-0.112-0.055
				c0-0.028,0.023-0.045,0.09-0.045c0.085,0,0.152-0.012,0.204-0.022c0.111-0.023,0.139-0.143,0.162-0.305
				C56.9,52.387,56.9,51.95,56.9,51.44V50.467z"/>
			<path style="fill:#141B4D;" d="M60.782,52.978c-0.089-0.037-0.107-0.066-0.107-0.187c0-0.305,0.023-0.636,0.028-0.725
				c0.006-0.082,0.024-0.144,0.068-0.144c0.052,0,0.057,0.05,0.057,0.094c0,0.072,0.022,0.187,0.05,0.282
				c0.124,0.409,0.456,0.559,0.805,0.559c0.506,0,0.755-0.337,0.755-0.631c0-0.27-0.085-0.53-0.554-0.884l-0.258-0.2
				c-0.618-0.475-0.832-0.862-0.832-1.31c0-0.609,0.518-1.048,1.3-1.048c0.364,0,0.603,0.057,0.748,0.095
				c0.05,0.012,0.077,0.028,0.077,0.067c0,0.072-0.022,0.233-0.022,0.664c0,0.121-0.017,0.166-0.062,0.166
				c-0.037,0-0.055-0.033-0.055-0.1c0-0.05-0.028-0.221-0.146-0.366c-0.086-0.104-0.25-0.27-0.614-0.27
				c-0.416,0-0.671,0.238-0.671,0.57c0,0.255,0.13,0.448,0.599,0.797l0.156,0.116c0.676,0.514,0.923,0.886,0.923,1.41
				c0,0.322-0.124,0.703-0.528,0.964c-0.283,0.175-0.598,0.227-0.895,0.227C61.279,53.123,61.026,53.083,60.782,52.978"/>
			<path style="fill:#141B4D;" d="M64.395,50.467c0-0.841,0-0.996-0.01-1.173c-0.012-0.188-0.07-0.282-0.192-0.309
				c-0.062-0.018-0.135-0.023-0.202-0.023c-0.057,0-0.09-0.01-0.09-0.054c0-0.033,0.045-0.045,0.135-0.045
				c0.213,0,0.567,0.015,0.732,0.015c0.14,0,0.473-0.015,0.685-0.015c0.073,0,0.119,0.012,0.119,0.045
				c0,0.044-0.032,0.054-0.089,0.054c-0.058,0-0.102,0.005-0.17,0.017c-0.152,0.028-0.196,0.122-0.209,0.315
				c-0.01,0.176-0.01,0.332-0.01,1.173v0.973c0,0.537,0,0.974,0.023,1.213c0.015,0.148,0.055,0.247,0.224,0.27
				c0.079,0.01,0.202,0.022,0.287,0.022c0.062,0,0.089,0.017,0.089,0.045c0,0.039-0.044,0.055-0.106,0.055
				c-0.371,0-0.726-0.017-0.877-0.017c-0.131,0-0.486,0.017-0.711,0.017c-0.073,0-0.111-0.017-0.111-0.055
				c0-0.028,0.022-0.045,0.089-0.045c0.085,0,0.152-0.012,0.204-0.022c0.111-0.023,0.146-0.117,0.162-0.277
				c0.028-0.232,0.028-0.669,0.028-1.206V50.467z"/>
			<path style="fill:#141B4D;" d="M67.716,49.173l-0.838,0.022c-0.327,0.01-0.462,0.039-0.545,0.16
				c-0.058,0.084-0.085,0.151-0.095,0.194c-0.013,0.045-0.03,0.066-0.063,0.066c-0.039,0-0.052-0.027-0.052-0.088
				c0-0.089,0.108-0.592,0.119-0.637c0.018-0.071,0.033-0.106,0.068-0.106c0.044,0,0.1,0.057,0.241,0.067
				c0.162,0.017,0.377,0.027,0.563,0.027h2.229c0.179,0,0.303-0.015,0.388-0.027c0.084-0.017,0.129-0.027,0.151-0.027
				c0.039,0,0.045,0.033,0.045,0.116c0,0.117-0.017,0.498-0.017,0.642c-0.005,0.054-0.017,0.088-0.05,0.088
				c-0.045,0-0.055-0.028-0.061-0.109l-0.006-0.062c-0.01-0.144-0.164-0.299-0.663-0.309l-0.71-0.017v2.267
				c0,0.51,0,0.946,0.028,1.184c0.017,0.156,0.049,0.277,0.22,0.3c0.077,0.01,0.201,0.021,0.286,0.021
				c0.062,0,0.09,0.017,0.09,0.045c0,0.039-0.045,0.055-0.108,0.055c-0.371,0-0.726-0.017-0.884-0.017
				c-0.129,0-0.483,0.017-0.707,0.017c-0.075,0-0.113-0.017-0.113-0.055c0-0.028,0.022-0.045,0.089-0.045
				c0.085,0,0.152-0.01,0.203-0.021c0.113-0.023,0.147-0.144,0.162-0.305c0.03-0.233,0.03-0.669,0.03-1.179V49.173z"/>
			<path style="fill:#141B4D;" d="M71.648,51.612c0-0.299-0.057-0.42-0.13-0.581c-0.039-0.088-0.793-1.305-0.99-1.592
				c-0.14-0.206-0.281-0.344-0.389-0.406c-0.072-0.037-0.166-0.071-0.236-0.071c-0.045,0-0.084-0.01-0.084-0.05
				c0-0.033,0.039-0.049,0.107-0.049c0.102,0,0.522,0.015,0.71,0.015c0.117,0,0.349-0.015,0.601-0.015
				c0.055,0,0.084,0.015,0.084,0.049c0,0.033-0.039,0.04-0.125,0.061c-0.048,0.013-0.077,0.057-0.077,0.1
				c0,0.045,0.03,0.111,0.067,0.188c0.08,0.165,0.867,1.5,0.957,1.653c0.057-0.131,0.766-1.349,0.844-1.522
				c0.057-0.121,0.079-0.214,0.079-0.286c0-0.057-0.022-0.116-0.117-0.139c-0.05-0.012-0.102-0.022-0.102-0.055
				c0-0.039,0.028-0.049,0.095-0.049c0.187,0,0.367,0.015,0.529,0.015c0.124,0,0.496-0.015,0.601-0.015
				c0.063,0,0.102,0.01,0.102,0.044c0,0.039-0.044,0.055-0.107,0.055c-0.055,0-0.164,0.023-0.247,0.067
				c-0.12,0.055-0.18,0.121-0.304,0.27c-0.185,0.221-0.972,1.522-1.074,1.76c-0.085,0.198-0.085,0.369-0.085,0.552v0.456
				c0,0.088,0,0.319,0.018,0.551c0.01,0.162,0.061,0.282,0.229,0.305c0.079,0.01,0.204,0.022,0.282,0.022
				c0.062,0,0.09,0.017,0.09,0.045c0,0.039-0.046,0.054-0.118,0.054c-0.355,0-0.71-0.015-0.862-0.015
				c-0.14,0-0.495,0.015-0.703,0.015c-0.079,0-0.122-0.01-0.122-0.054c0-0.028,0.026-0.045,0.089-0.045
				c0.08,0,0.147-0.012,0.198-0.022c0.111-0.023,0.162-0.143,0.174-0.305c0.017-0.232,0.017-0.463,0.017-0.551V51.612z"/>
		</g>
		<path style="opacity:0;fill:#1C1C4C;" d="M120.765,0.028H0.001h-10.254v10.249v47.438v10.249H0.001h120.764v0.032h10.254v-0.032
			V57.714V10.276V0.028H120.765z M120.765,57.714H0.001V10.276h120.764V57.714z"/>
	</g>
</g>

</svg>
